<svg xmlns="http://www.w3.org/2000/svg" viewBox="0 0 299.03 360.52"><defs><style>.cls-1{fill:#9ed3c9;}</style></defs><g id="Layer_2" data-name="Layer 2"><g id="Layer_1-2" data-name="Layer 1"><g id="Layer_2-2" data-name="Layer 2"><g id="Layer_1-2-2" data-name="Layer 1-2"><path class="cls-1" d="M298.17,44c-4.48-24.83-26.29-44-50.72-44C182.18.12,116.9,0,51.63.06A46.13,46.13,0,0,0,39.42,1.47C16.83,7.68.15,29.24,0,52.67v38c0,72.31-.11,144.61.14,217,.06,20,9.27,35.42,26.24,46.15a46.55,46.55,0,0,0,20.45,6.73h204c5.3-.75,10.66-1,15.64-3.44,21.21-10.33,32.5-27.22,32.5-50.81q0-125.56,0-251.09A60.81,60.81,0,0,0,298.17,44ZM94,109.68c1.58-5.45,6.16-8.73,12.48-8.74h86c7.63,0,13.12,5.07,13.23,12s-5.44,12.43-13.24,12.48c-14.25.1-28.53,0-42.81,0s-28.56.07-42.84,0C97.48,125.38,91.56,118,94,109.68Zm143.1,139.76A12,12,0,0,1,225.72,260c-3.74.16-7.49.07-11.24.07H74.63c-8.78,0-14.59-7.45-12.27-15.53a11.69,11.69,0,0,1,8.6-8.43,20.52,20.52,0,0,1,5.57-.56H222.71a18,18,0,0,1,6.9,1A12.15,12.15,0,0,1,237.12,249.44Zm-9.69-57.08h0l-.35.06a36.62,36.62,0,0,1-4.91.24q-36.36,0-72.73-.06H75.63C68,192.6,63.33,189,62,182.52a12.1,12.1,0,0,1,9.74-14.06H72a26.23,26.23,0,0,1,3.86-.23H223.15c7.85,0,12.63,3.51,13.91,10.08a12,12,0,0,1-9.53,14Z"/></g></g></g></g></svg>
