<?xml version="1.0" standalone="no"?>
<!DOCTYPE svg PUBLIC "-//W3C//DTD SVG 20010904//EN"
 "http://www.w3.org/TR/2001/REC-SVG-20010904/DTD/svg10.dtd">
<svg version="1.0" xmlns="http://www.w3.org/2000/svg"
 width="722.000000pt" height="722.000000pt" viewBox="0 0 722.000000 722.000000"
 preserveAspectRatio="xMidYMid meet">
<metadata>
Created by potrace 1.14, written by Peter Selinger 2001-2017
</metadata>
<g transform="translate(0.000000,722.000000) scale(0.100000,-0.100000)"
fill="#000000" stroke="none">
<path d="M1454 7200 c-411 -91 -751 -455 -822 -880 -9 -58 -9 -5337 0 -5410 6
-43 19 -111 28 -137 0 -2 2 -8 4 -15 22 -79 36 -114 69 -178 62 -121 68 -130
78 -130 5 0 9 -6 9 -14 0 -22 168 -187 252 -249 43 -32 80 -57 83 -57 3 0 23
-11 45 -25 22 -14 40 -22 40 -19 0 4 6 2 13 -3 14 -12 115 -50 149 -57 13 -3
48 -10 79 -16 59 -11 4231 -9 4279 2 14 4 41 9 60 12 99 18 275 107 380 192
82 67 144 129 208 209 14 18 79 129 99 170 27 53 62 158 67 198 3 18 7 39 10
47 3 8 9 31 13 50 11 54 13 5336 3 5400 -18 108 -24 130 -52 215 -25 73 -68
158 -126 248 -44 67 -180 213 -236 252 -15 11 -34 25 -40 30 -45 38 -234 128
-314 149 -35 10 -73 20 -85 24 -12 3 -965 7 -2117 8 -1981 1 -2099 0 -2176
-16z m3124 -2019 c81 -30 140 -95 157 -176 18 -85 -15 -178 -82 -234 -79 -65
-53 -64 -1043 -63 -492 1 -906 4 -919 6 -33 7 -102 44 -129 69 -35 32 -63 93
-67 146 -10 120 64 228 176 259 20 5 427 9 948 9 823 1 919 -1 959 -16z m657
-1358 c86 -46 130 -112 134 -199 3 -76 -14 -127 -62 -179 -83 -90 69 -83
-1702 -81 -1440 2 -1563 4 -1597 19 -89 40 -150 133 -150 226 1 48 32 131 60
159 28 28 75 58 107 70 21 7 503 10 1600 9 l1570 -2 40 -22z m-75 -1326 c119
-20 197 -102 208 -220 9 -98 -41 -189 -130 -238 l-43 -24 -1568 -2 c-1559 -1
-1568 -1 -1615 19 -124 54 -178 172 -137 301 18 59 69 120 115 140 74 31 138
32 1631 31 827 -1 1520 -4 1539 -7z"/>
</g>
</svg>
